<svg enable-background="new 0 0 123.45 123.45" viewBox="0 0 123.45 123.45" xmlns="http://www.w3.org/2000/svg"><switch><foreignObject height="1" requiredExtensions="http://ns.adobe.com/AdobeIllustrator/10.0/" width="1"/><path clip-rule="evenodd" d="m61.72.28c14.77 0 28.33 5.22 38.93 13.9l-53.79 31.06v-43.14c4.76-1.19 9.74-1.82 14.86-1.82zm44.27 18.84c10.63 11.05 17.17 26.06 17.17 42.6 0 3.02-.22 5.98-.64 8.89l-52.86-30.52zm15.06 58.64c-4.9 18.16-17.91 32.99-34.91 40.36v-60.51zm-41.84 42.88c-5.54 1.64-11.41 2.53-17.48 2.53-13.75 0-26.44-4.52-36.67-12.14l54.16-31.27zm-59.8-14.37c-11.78-11.2-19.13-27.01-19.13-44.55 0-3.03.22-6 .65-8.92l54.51 32.65zm-16.99-60.65c5.16-19.05 19.25-34.41 37.49-41.35l-.44 63.54z" fill-rule="evenodd"/></switch></svg>