<svg enable-background="new 0 0 123.45 123.45" viewBox="0 0 123.45 123.45" xmlns="http://www.w3.org/2000/svg"><switch><foreignObject height="1" requiredExtensions="http://ns.adobe.com/AdobeIllustrator/10.0/" width="1"/><path d="m54.995 94.667c-.949 0-1.879-.39-2.548-1.115l-27.945-30.263c-1.251-1.355-1.223-3.451.064-4.772l27.945-28.685c.984-1.01 2.483-1.324 3.79-.792 1.307.531 2.162 1.801 2.162 3.212v14.308c10.452.831 19.547 5.104 27.074 12.73 8.242 8.353 13.057 18.875 14.314 31.275.154 1.522-.707 2.965-2.12 3.552-1.412.587-3.043.179-4.012-1.005-7.931-9.682-14.875-15.211-20.639-16.434-5.063-1.073-9.966-1.399-14.617-.973v15.494c0 1.428-.875 2.709-2.205 3.229-.411.161-.839.239-1.263.239z"/></switch></svg>