<svg enable-background="new 0 0 123.45 123.45" viewBox="0 0 123.45 123.45" xmlns="http://www.w3.org/2000/svg"><switch><foreignObject height="1" requiredExtensions="http://ns.adobe.com/AdobeIllustrator/10.0/" width="1"/><g><path d="m104.105 96.875c-.673.817-1.423 1.568-2.24 2.24l.016.02-.016-.02c-1.982 1.623-4.6 2.614-9.027 3.137-4.511.533-10.391.538-18.666.538h-24.894c-8.275 0-14.155-.005-18.666-.538-4.426-.523-7.045-1.514-9.027-3.137-.817-.673-1.568-1.423-2.24-2.24l-.02.016.02-.016c-1.623-1.982-2.614-4.6-3.137-9.027-.533-4.511-.538-10.391-.538-18.666v-9.958h-7.468v9.958c0 8.091-.005 14.489.592 19.542.607 5.127 1.876 9.358 4.778 12.883l-.003.002c.986 1.198 2.08 2.292 3.281 3.281 3.53 2.898 7.752 4.167 12.885 4.78 5.054.597 11.451.588 19.542.588h24.894c8.091 0 14.489.005 19.542-.592 5.127-.607 9.358-1.876 12.883-4.778l.002.003c1.198-.986 2.292-2.08 3.281-3.281 2.898-3.53 4.167-7.752 4.78-12.885.597-5.054.588-11.451.588-19.542h-7.468c0 8.275-.005 14.155-.538 18.666-.522 4.426-1.513 7.045-3.136 9.026z"/><path d="m114.232 44.891c-.599-1.974-2.686-3.089-4.66-2.489-1.974.599-3.089 2.686-2.489 4.66.657 2.161.697 4.944.697 12.163v9.958h7.468v-9.958c0-6.677.04-10.844-1.016-14.334z"/><path d="m27.157 36.272-2.176-7.145c-7.553 2.294-13.465 8.205-15.758 15.758-1.06 3.49-1.021 7.658-1.021 14.334l7.468.005c0-7.219.04-10.003.697-12.163 1.569-5.172 5.617-9.22 10.79-10.789z"/><path d="m42.427 33.912-.003-.002 4.046-6.067-6.214-4.142-2.939 4.406c-5.532.004-9.204.07-12.331 1.021l2.171 7.145c2.161-.657 4.944-.697 12.163-.697 1.249-.001 2.414-.625 3.107-1.664z"/><path d="m49.796 23.093c.817-1.006 1.364-1.444 1.877-1.718l-.001-.002c.507-.273 1.174-.486 2.461-.605 1.369-.124 3.122-.129 5.8-.129h3.585c2.679 0 4.431 0 5.8.129 1.286.119 1.953.333 2.466.605l-.001.002c1.819.972 4.082.285 5.054-1.533.971-1.818.286-4.078-1.53-5.051l.001-.002c-1.693-.901-3.425-1.28-5.298-1.454-1.792-.169-3.948-.164-6.492-.164h-3.585c-2.539 0-4.7 0-6.492.164-1.872.174-3.61.548-5.298 1.454l.001.002c-1.691.906-2.969 2.14-4.149 3.603-1.135 1.394-2.325 3.196-3.734 5.307l6.214 4.142c1.483-2.225 2.459-3.684 3.321-4.75z"/><path d="m75.985 28.06c-1.772.379-3.057 1.969-3.057 3.781s1.286 3.402 3.057 3.781c.011.002.022.005.033.007 5.947 1.217 10.576 5.846 11.793 11.793.002.011.005.022.007.033.379 1.771 1.97 3.056 3.781 3.056s3.401-1.285 3.781-3.056c.002-.011.005-.022.007-.033 1.217-5.947 5.846-10.576 11.793-11.793.011-.002.022-.004.033-.007 1.771-.379 3.057-1.969 3.057-3.781s-1.286-3.402-3.057-3.781c-.011-.002-.022-.005-.033-.007-5.947-1.217-10.576-5.846-11.793-11.793-.002-.011-.005-.022-.007-.033-.379-1.771-1.97-3.056-3.781-3.056s-3.401 1.285-3.781 3.056c-.002.011-.005.022-.007.033-1.217 5.947-5.846 10.576-11.793 11.793-.012.003-.023.005-.033.007zm15.613-2.004c1.56 2.265 3.521 4.226 5.786 5.785-2.265 1.56-4.226 3.521-5.786 5.786-1.56-2.265-3.521-4.226-5.786-5.786 2.266-1.56 4.226-3.521 5.786-5.785z"/><path d="m61.725 43.044c-13.04 0-23.65 10.609-23.65 23.65 0 13.04 10.609 23.65 23.65 23.65 13.04 0 23.65-10.609 23.65-23.65s-10.61-23.65-23.65-23.65zm0 39.831c-8.922 0-16.181-7.259-16.181-16.181s7.259-16.181 16.181-16.181 16.181 7.259 16.181 16.181-7.259 16.181-16.181 16.181z"/></g></switch></svg>