<svg enable-background="new 0 0 1281.103 425.856" viewBox="0 0 1281.103 425.856" xmlns="http://www.w3.org/2000/svg" xmlns:xlink="http://www.w3.org/1999/xlink"><linearGradient id="a" gradientUnits="userSpaceOnUse" x1="100.9521" x2="279.6359" y1="313.0252" y2="124.303"><stop offset="0" stop-color="#00b6d3"/><stop offset=".4977" stop-color="#7562ab"/><stop offset=".7191" stop-color="#af5aa2"/><stop offset=".9092" stop-color="#d94f9b"/><stop offset="1" stop-color="#eb4998"/></linearGradient><switch><foreignObject height="1" requiredExtensions="http://ns.adobe.com/AdobeIllustrator/10.0/" width="1"/><g><path clip-rule="evenodd" d="m249.808 101.624v-20.71c0-7.149-5.795-12.944-12.944-12.944s-12.944 5.795-12.944 12.944v20.71h-56.35v-20.71c0-7.149-5.795-12.944-12.944-12.944s-12.944 5.795-12.944 12.944v20.71h-21.89c-19.529 0-35.372 15.843-35.372 35.372v21.89h-20.71c-7.149 0-12.944 5.795-12.944 12.944s5.795 12.944 12.944 12.944h20.71v56.331h-20.71c-7.149 0-12.944 5.795-12.944 12.944s5.795 12.944 12.944 12.944h20.71v21.869c0 19.529 15.843 35.372 35.372 35.372h21.89v20.71c0 7.149 5.795 12.944 12.944 12.944s12.944-5.795 12.944-12.944v-20.71h56.33v20.71c0 7.149 5.795 12.944 12.944 12.944s12.944-5.795 12.944-12.944v-20.71h21.87c19.529 0 35.372-15.843 35.372-35.372v-21.869h20.71c7.149 0 12.944-5.795 12.944-12.944s-5.795-12.944-12.944-12.944h-20.71v-56.331h20.71c7.149 0 12.944-5.795 12.944-12.944s-5.795-12.944-12.944-12.944h-20.71v-21.89c0-19.529-15.843-35.372-35.372-35.372z" fill="url(#a)" fill-rule="evenodd"/><path d="m185.221 243.916h-32.738l-4.855 14.843h-32.322l35.929-98.215h35.513l35.79 98.215h-32.461zm-7.491-23.167-8.878-27.328-8.879 27.328z" fill="#fff"/><path d="m260.269 160.544v98.215h-30.796v-98.215z" fill="#fff"/><path d="m253.156 155.918-3.307-11.568c-1.239-4.33-7.376-4.33-8.615 0l-3.304 11.568c-.425 1.488-1.588 2.651-3.076 3.076l-11.568 3.304c-4.33 1.239-4.33 7.376 0 8.615l11.568 3.304c1.488.425 2.651 1.588 3.076 3.076l3.304 11.568c1.239 4.33 7.376 4.33 8.615 0l3.304-11.568c.425-1.488 1.588-2.651 3.076-3.076l11.568-3.304c4.33-1.239 4.33-7.376 0-8.615l-11.568-3.304c-1.488-.425-2.651-1.588-3.076-3.076" fill="#fff" stroke="#bd56a0" stroke-miterlimit="10" stroke-width="2"/><path d="m219.412 205.401c-2.121 0-3.893-1.383-4.408-3.442l-.963-3.853-3.853-.963c-2.059-.515-3.443-2.286-3.443-4.408 0-2.123 1.383-3.896 3.443-4.412l3.853-.96.963-3.852.103-.358c.645-1.894 2.329-3.087 4.304-3.087s3.66 1.193 4.292 3.039l.108.371.972 3.887 3.852.96c2.062.515 3.446 2.288 3.446 4.411 0 2.122-1.385 3.894-3.445 4.409l-3.853.963-.963 3.853c-.516 2.059-2.287 3.442-4.408 3.442z" fill="#fff"/><path d="m219.41 181.066c1.403 0 2.807.788 3.346 2.363l.093.325 1.109 4.435 4.435 1.105c3.584.896 3.584 5.984 0 6.88l-4.435 1.109-1.109 4.435c-.448 1.79-1.943 2.685-3.438 2.685s-2.99-.895-3.438-2.685l-1.109-4.435-4.435-1.109c-3.584-.896-3.58-5.984 0-6.88l4.435-1.105 1.109-4.435.093-.325c.538-1.575 1.941-2.363 3.344-2.363m0-2c-2.41 0-4.466 1.459-5.236 3.717l-.016.046-.014.047-.093.325-.01.034-.008.034-.817 3.269-3.269.815c-2.515.629-4.203 2.792-4.203 5.382 0 2.589 1.689 4.75 4.201 5.378l3.27.818.818 3.27c.629 2.512 2.79 4.2 5.378 4.2s4.75-1.688 5.378-4.199l.818-3.271 3.27-.818c2.514-.628 4.203-2.791 4.203-5.38s-1.689-4.752-4.203-5.38l-3.271-.815-.817-3.269-.008-.034-.01-.033-.093-.325-.014-.048-.016-.047c-.772-2.257-2.829-3.716-5.238-3.716z" fill="#e41a52" stroke="#bd56a0" stroke-miterlimit="10"/><path d="m271.671 153.138c-2.121 0-3.893-1.383-4.408-3.442l-.963-3.853-3.853-.963c-2.06-.515-3.443-2.286-3.443-4.406 0-2.122 1.383-3.895 3.443-4.41l3.853-.963.963-3.853c.514-2.059 2.286-3.442 4.409-3.442 1.975 0 3.658 1.192 4.29 3.036l.108.371.972 3.887 3.853.963c2.059.513 3.444 2.283 3.445 4.404.001 2.124-1.383 3.896-3.445 4.412l-3.853.963-.963 3.853c-.515 2.06-2.286 3.443-4.408 3.443z" fill="#fff"/><path d="m271.672 128.806c1.403 0 2.805.787 3.344 2.36l.093.325 1.109 4.435 4.435 1.109c3.584.892 3.584 5.98 0 6.876l-4.435 1.109-1.109 4.435c-.448 1.79-1.943 2.685-3.438 2.685s-2.99-.895-3.438-2.685l-1.109-4.435-4.435-1.109c-3.584-.896-3.58-5.98 0-6.876l4.435-1.109 1.109-4.435c.447-1.79 1.943-2.685 3.439-2.685m0-2c-2.59 0-4.752 1.688-5.379 4.2l-.818 3.27-3.27.818c-2.513.629-4.202 2.791-4.201 5.38 0 2.588 1.689 4.748 4.201 5.376l3.27.818.818 3.27c.629 2.512 2.79 4.2 5.378 4.2s4.75-1.688 5.378-4.199l.818-3.271 3.27-.818c2.515-.629 4.204-2.792 4.203-5.382-.001-2.589-1.691-4.749-4.204-5.374l-3.268-.817-.818-3.27-.008-.034-.01-.034-.093-.325-.014-.048-.016-.047c-.772-2.256-2.828-3.713-5.237-3.713z" fill="#e41a52" stroke="#bd56a0" stroke-miterlimit="10"/><g fill="#fff"><path d="m443.939 211.107c-2.868 5.042-7.099 9.041-12.693 12-5.597 2.961-12.37 4.439-20.323 4.439h-12.208v31.212h-30.796v-98.215h43.004c12.021 0 21.246 3.052 27.675 9.156 6.427 6.104 9.641 14.288 9.641 24.553-0 6.198-1.435 11.816-4.3 16.855zm-26.912-16.854c0-6.01-3.19-9.017-9.572-9.017h-8.739v18.034h8.739c6.381 0 9.572-3.004 9.572-9.017z"/><path d="m533.759 188.982c5.04 6.012 7.56 14.15 7.56 24.415v45.362h-30.657v-41.478c0-3.698-.995-6.635-2.982-8.809-1.99-2.172-4.647-3.261-7.977-3.261-3.423 0-6.104 1.089-8.046 3.261-1.942 2.174-2.913 5.11-2.913 8.809v41.478h-30.796v-102.654h30.796v36.345c2.404-3.698 5.618-6.704 9.641-9.017 4.023-2.311 8.809-3.468 14.357-3.468 8.97 0 15.975 3.006 21.017 9.017z"/><path d="m570.589 254.875c-6.29-3.236-11.215-7.884-14.774-13.942-3.561-6.056-5.341-13.154-5.341-21.293 0-8.138 1.78-15.236 5.341-21.294 3.559-6.056 8.484-10.704 14.774-13.942 6.288-3.236 13.363-4.855 21.224-4.855 7.86 0 14.935 1.619 21.225 4.855 6.288 3.238 11.212 7.886 14.774 13.942 3.56 6.058 5.341 13.156 5.341 21.294 0 8.139-1.781 15.237-5.341 21.293-3.562 6.059-8.486 10.706-14.774 13.942-6.29 3.238-13.365 4.855-21.225 4.855-7.862-.001-14.936-1.617-21.224-4.855zm28.438-25.179c1.942-2.265 2.913-5.618 2.913-10.057s-.971-7.79-2.913-10.058c-1.942-2.265-4.348-3.398-7.214-3.398-2.868 0-5.271 1.134-7.213 3.398-1.942 2.268-2.913 5.618-2.913 10.058 0 4.438.947 7.792 2.844 10.057 1.895 2.268 4.322 3.399 7.283 3.399 2.864.001 5.27-1.131 7.213-3.399z"/><path d="m691.552 232.54v26.219h-11.653c-21.456 0-32.183-10.682-32.183-32.045v-20.53h-9.711v-25.664h9.711v-18.866h30.796v18.866h12.763v25.664h-12.763v21.085c0 1.852.438 3.191 1.317 4.023.878.832 2.335 1.248 4.37 1.248z"/><path d="m719.295 254.875c-6.29-3.236-11.215-7.884-14.773-13.942-3.562-6.056-5.341-13.154-5.341-21.293 0-8.138 1.779-15.236 5.341-21.294 3.559-6.056 8.483-10.704 14.773-13.942 6.288-3.236 13.363-4.855 21.225-4.855 7.859 0 14.935 1.619 21.225 4.855 6.288 3.238 11.212 7.886 14.773 13.942 3.56 6.058 5.341 13.156 5.341 21.294 0 8.139-1.781 15.237-5.341 21.293-3.562 6.059-8.485 10.706-14.773 13.942-6.29 3.238-13.365 4.855-21.225 4.855-7.862-.001-14.937-1.617-21.225-4.855zm28.438-25.179c1.941-2.265 2.913-5.618 2.913-10.057s-.972-7.79-2.913-10.058c-1.942-2.265-4.349-3.398-7.214-3.398-2.868 0-5.271 1.134-7.214 3.398-1.941 2.268-2.913 5.618-2.913 10.058 0 4.438.947 7.792 2.844 10.057 1.895 2.268 4.322 3.399 7.283 3.399 2.865.001 5.272-1.131 7.214-3.399z"/><path d="m894.706 216.934c3.281 4.3 4.926 9.272 4.926 14.912 0 8.601-2.844 15.238-8.533 19.906-5.688 4.672-13.85 7.006-24.483 7.006h-51.466v-98.215h50.079c9.987 0 17.847 2.174 23.583 6.52 5.732 4.348 8.6 10.681 8.6 19.005 0 5.735-1.504 10.567-4.508 14.497-3.006 3.932-7.006 6.543-12 7.838 5.917 1.387 10.519 4.231 13.802 8.531zm-48.76-18.103h11.93c2.774 0 4.831-.555 6.173-1.665 1.34-1.109 2.012-2.819 2.012-5.132 0-2.404-.672-4.183-2.012-5.341-1.342-1.155-3.398-1.734-6.173-1.734h-11.93zm20.184 33.64c1.34-1.062 2.012-2.796 2.012-5.202 0-4.716-2.729-7.074-8.185-7.074h-14.011v13.872h14.011c2.774-.001 4.831-.532 6.173-1.596z"/><path d="m925.986 254.875c-6.29-3.236-11.215-7.884-14.773-13.942-3.562-6.056-5.341-13.154-5.341-21.293 0-8.138 1.779-15.236 5.341-21.294 3.559-6.056 8.483-10.704 14.773-13.942 6.288-3.236 13.363-4.855 21.225-4.855 7.859 0 14.935 1.619 21.225 4.855 6.288 3.238 11.213 7.886 14.773 13.942 3.56 6.058 5.341 13.156 5.341 21.294 0 8.139-1.781 15.237-5.341 21.293-3.561 6.059-8.485 10.706-14.773 13.942-6.29 3.238-13.365 4.855-21.225 4.855-7.862-.001-14.937-1.617-21.225-4.855zm28.438-25.179c1.942-2.265 2.913-5.618 2.913-10.057s-.971-7.79-2.913-10.058c-1.942-2.265-4.349-3.398-7.214-3.398-2.867 0-5.271 1.134-7.213 3.398-1.942 2.268-2.914 5.618-2.914 10.058 0 4.438.947 7.792 2.845 10.057 1.894 2.268 4.321 3.399 7.282 3.399 2.866.001 5.272-1.131 7.214-3.399z"/><path d="m1014.212 254.875c-6.29-3.236-11.215-7.884-14.773-13.942-3.562-6.056-5.341-13.154-5.341-21.293 0-8.138 1.779-15.236 5.341-21.294 3.559-6.056 8.483-10.704 14.773-13.942 6.288-3.236 13.363-4.855 21.225-4.855 7.859 0 14.935 1.619 21.225 4.855 6.288 3.238 11.213 7.886 14.773 13.942 3.56 6.058 5.341 13.156 5.341 21.294 0 8.139-1.781 15.237-5.341 21.293-3.561 6.059-8.485 10.706-14.773 13.942-6.29 3.238-13.365 4.855-21.225 4.855-7.862-.001-14.937-1.617-21.225-4.855zm28.438-25.179c1.942-2.265 2.913-5.618 2.913-10.057s-.971-7.79-2.913-10.058c-1.942-2.265-4.349-3.398-7.214-3.398-2.867 0-5.271 1.134-7.213 3.398-1.942 2.268-2.914 5.618-2.914 10.058 0 4.438.947 7.792 2.845 10.057 1.894 2.268 4.321 3.399 7.282 3.399 2.866.001 5.272-1.131 7.214-3.399z"/><path d="m1135.175 232.54v26.219h-11.652c-21.456 0-32.184-10.682-32.184-32.045v-20.53h-9.71v-25.664h9.71v-18.866h30.797v18.866h12.762v25.664h-12.762v21.085c0 1.852.438 3.191 1.317 4.023.878.832 2.335 1.248 4.37 1.248z"/><path d="m1222.776 188.982c5.04 6.012 7.561 14.15 7.561 24.415v45.362h-30.657v-41.478c0-3.698-.995-6.635-2.982-8.809-1.99-2.172-4.647-3.261-7.977-3.261-3.423 0-6.104 1.089-8.046 3.261-1.942 2.174-2.913 5.11-2.913 8.809v41.478h-30.796v-102.654h30.796v36.345c2.403-3.698 5.618-6.704 9.641-9.017 4.023-2.311 8.81-3.468 14.358-3.468 8.968 0 15.974 3.006 21.015 9.017z"/></g></g></switch></svg>